<?xml version="1.0" encoding="utf-8"?>
<!-- Generator: Adobe Illustrator 15.0.0, SVG Export Plug-In . SVG Version: 6.00 Build 0)  -->
<!DOCTYPE svg PUBLIC "-//W3C//DTD SVG 1.1//EN" "http://www.w3.org/Graphics/SVG/1.1/DTD/svg11.dtd">
<svg version="1.1" xmlns="http://www.w3.org/2000/svg" xmlns:xlink="http://www.w3.org/1999/xlink" x="0px" y="0px" width="80px"
	 height="25px" viewBox="0 0 80 25" enable-background="new 0 0 80 25" xml:space="preserve">

<g id="Logo-cut">
	<g>
		<g opacity="0.9">
			<polygon fill="#FFFFFF" points="64,23 80,23 80,17 73,17 73,16 73,15 73,14 79,14 79,9 73,9 73,8 73,7 73,6 80,6 80,0 64,0 			
				"/>
			<path fill="#FFFFFF" d="M32.344,23c6.772,0,11.84-5.087,12.094-11.486C44.185,5.11,39.116,0,32.344,0
				c-6.771,0-11.809,5.11-12.061,11.514C20.536,17.913,25.573,23,32.344,23z M28.094,11.003c0-2.343,1.812-4.232,4.261-4.232
				c2.45,0,4.275,1.89,4.275,4.232c0,0.171-0.03,0.334-0.049,0.5c0.019,0.166,0.049,0.329,0.049,0.5
				c0,2.341-1.825,4.221-4.275,4.221c-2.45,0-4.261-1.88-4.261-4.221c0-0.171,0.029-0.334,0.048-0.5
				C28.123,11.337,28.094,11.174,28.094,11.003z"/>
			<path fill="#FFFFFF" d="M23.467,0h-5.526l-5.346,14.783L7.248,0H0.366L8.68,23h7.83l2.396-6.639
				c-0.434-1.368-0.677-2.824-0.677-4.346c0-0.193,0.011-0.383,0.018-0.574c-0.004-0.143-0.018-0.282-0.018-0.426
				C18.229,6.547,20.224,2.566,23.467,0z"/>
			<path fill="#FFFFFF" d="M61.823,0h-20.59c1.956,1.551,3.468,4,4.355,6h4.53l-0.436,1h0.436L43.14,23H62v-6h-7.189l0.438-1h-0.438
				L61.823,0z"/>
		</g>
		<g>
			<g>
				<g>
					<linearGradient id="SVGID_5_" gradientUnits="userSpaceOnUse" x1="72" y1="25.0625" x2="72" y2="1.0931">
						<stop  offset="0" style="stop-color:#767575"/>
						<stop  offset="0.16" style="stop-color:#767575"/>
						<stop  offset="0.35" style="stop-color:#5F5F5E"/>
						<stop  offset="0.54" style="stop-color:#969696"/>
						<stop  offset="0.78" style="stop-color:#B8B5B5"/>
						<stop  offset="0.95" style="stop-color:#969696"/>
					</linearGradient>
					<polygon fill="url(#SVGID_5_)" points="64,24 80,24 80,18 73,18 73,17 73,16 73,15 79,15 79,10 73,10 73,9 73,8 73,7 80,7 
						80,1 64,1 					"/>
				</g>
				<g>
					<linearGradient id="SVGID_6_" gradientUnits="userSpaceOnUse" x1="32.3608" y1="25.0625" x2="32.3608" y2="1.0931">
						<stop  offset="0" style="stop-color:#767575"/>
						<stop  offset="0.16" style="stop-color:#767575"/>
						<stop  offset="0.35" style="stop-color:#5F5F5E"/>
						<stop  offset="0.54" style="stop-color:#969696"/>
						<stop  offset="0.78" style="stop-color:#B8B5B5"/>
						<stop  offset="0.95" style="stop-color:#969696"/>
					</linearGradient>
					<path fill="url(#SVGID_6_)" d="M32.344,24c6.772,0,11.84-5.087,12.094-11.486C44.185,6.11,39.116,1,32.344,1
						c-6.771,0-11.809,5.11-12.061,11.514C20.536,18.913,25.573,24,32.344,24z M28.094,12.003c0-2.343,1.812-4.232,4.261-4.232
						c2.45,0,4.275,1.89,4.275,4.232c0,0.171-0.03,0.334-0.049,0.5c0.019,0.166,0.049,0.329,0.049,0.5
						c0,2.341-1.825,4.221-4.275,4.221c-2.45,0-4.261-1.88-4.261-4.221c0-0.171,0.029-0.334,0.048-0.5
						C28.123,12.337,28.094,12.174,28.094,12.003z"/>
				</g>
				<g>
					<linearGradient id="SVGID_7_" gradientUnits="userSpaceOnUse" x1="11.9165" y1="25.0625" x2="11.9165" y2="1.0931">
						<stop  offset="0" style="stop-color:#767575"/>
						<stop  offset="0.16" style="stop-color:#767575"/>
						<stop  offset="0.35" style="stop-color:#5F5F5E"/>
						<stop  offset="0.54" style="stop-color:#969696"/>
						<stop  offset="0.78" style="stop-color:#B8B5B5"/>
						<stop  offset="0.95" style="stop-color:#969696"/>
					</linearGradient>
					<path fill="url(#SVGID_7_)" d="M23.467,1h-5.526l-5.346,14.783L7.248,1H0.366L8.68,24h7.83l2.396-6.639
						c-0.434-1.368-0.677-2.824-0.677-4.346c0-0.193,0.011-0.383,0.018-0.574c-0.004-0.143-0.018-0.282-0.018-0.426
						C18.229,7.547,20.224,3.566,23.467,1z"/>
				</g>
				<g>
					<linearGradient id="SVGID_8_" gradientUnits="userSpaceOnUse" x1="51.6172" y1="25.0625" x2="51.6172" y2="1.0931">
						<stop  offset="0" style="stop-color:#767575"/>
						<stop  offset="0.16" style="stop-color:#767575"/>
						<stop  offset="0.35" style="stop-color:#5F5F5E"/>
						<stop  offset="0.54" style="stop-color:#969696"/>
						<stop  offset="0.78" style="stop-color:#B8B5B5"/>
						<stop  offset="0.95" style="stop-color:#969696"/>
					</linearGradient>
					<path fill="url(#SVGID_8_)" d="M61.823,1h-20.59c1.956,1.551,3.468,4,4.355,6h4.53l-0.436,1h0.436L43.14,24H62v-6h-7.189
						l0.438-1h-0.438L61.823,1z"/>
				</g>
			</g>
		</g>
	</g>
</g>
<g id="Overlay_2">
	<g opacity="0.3">
		<g>
			<g>
				<polygon fill="#FFFFFF" points="64,24 80,24 80,18 73,18 73,17 73,16 73,15 79,15 79,10 73,10 73,9 73,8 73,7 80,7 80,1 64,1 
									"/>
			</g>
			<g>
				<path fill="#FFFFFF" d="M32.344,24c6.772,0,11.84-5.087,12.094-11.486C44.185,6.11,39.116,1,32.344,1
					c-6.771,0-11.809,5.11-12.061,11.514C20.536,18.913,25.573,24,32.344,24z M28.094,12.003c0-2.343,1.812-4.232,4.261-4.232
					c2.45,0,4.275,1.89,4.275,4.232c0,0.171-0.03,0.334-0.049,0.5c0.019,0.166,0.049,0.329,0.049,0.5
					c0,2.341-1.825,4.221-4.275,4.221c-2.45,0-4.261-1.88-4.261-4.221c0-0.171,0.029-0.334,0.048-0.5
					C28.123,12.337,28.094,12.174,28.094,12.003z"/>
			</g>
			<g>
				<path fill="#FFFFFF" d="M23.467,1h-5.526l-5.346,14.783L7.248,1H0.366L8.68,24h7.83l2.396-6.639
					c-0.434-1.368-0.677-2.824-0.677-4.346c0-0.193,0.011-0.383,0.018-0.574c-0.004-0.143-0.018-0.282-0.018-0.426
					C18.229,7.547,20.224,3.566,23.467,1z"/>
			</g>
			<g>
				<path fill="#FFFFFF" d="M61.823,1h-20.59c1.956,1.551,3.468,4,4.355,6h4.53l-0.436,1h0.436L43.14,24H62v-6h-7.189l0.438-1
					h-0.438L61.823,1z"/>
			</g>
		</g>
	</g>
</g>
<g id="Shadow">
	<g opacity="0.8">
		<g>
			<rect x="73" y="15" fill="#010101" width="6" height="1"/>
			<rect x="73" y="7" fill="#010101" width="7" height="1"/>
			<rect x="64" y="24" fill="#010101" width="16" height="1"/>
		</g>
		<g>
			<path fill="#010101" d="M32.355,7.771c-2.45,0-4.261,1.89-4.261,4.232c0,0.171,0.029,0.334,0.048,0.5
				c0.24-2.103,1.942-3.732,4.213-3.732c2.271,0,3.985,1.63,4.226,3.732c0.019-0.166,0.049-0.329,0.049-0.5
				C36.63,9.661,34.805,7.771,32.355,7.771z"/>
			<path fill="#010101" d="M32.344,24c-6.771,0-11.809-5.087-12.061-11.486c-0.007,0.167-0.024,0.331-0.024,0.5
				C20.259,19.648,25.396,25,32.344,25c6.949,0,12.119-5.352,12.119-11.986c0-0.169-0.018-0.333-0.024-0.5
				C44.185,18.913,39.116,24,32.344,24z"/>
		</g>
		<g>
			<path fill="#010101" d="M16.51,24H8.68L0.366,1H0.005L8.68,25h7.83l2.563-7.103c-0.063-0.175-0.111-0.357-0.167-0.536L16.51,24z"
				/>
			<path fill="#010101" d="M18.229,12.016c0,0.144,0.014,0.283,0.018,0.426C18.436,7.583,20.98,3.358,24.914,1h-1.446
				C20.224,3.566,18.229,7.547,18.229,12.016z"/>
		</g>
		<g>
			<path fill="#010101" d="M49.684,8l0.436-1h-4.53c-0.888-2-2.399-4.449-4.355-6h-1.422c2.656,1.597,4.685,4,5.777,7H49.684z"/>
			<polygon fill="#010101" points="42.704,25 62,25 62,24 43.14,24 			"/>
			<polygon fill="#010101" points="54.811,17 55.249,17 62.262,1 61.823,1 			"/>
		</g>
	</g>
</g>
</svg>
