<?xml version="1.0" encoding="utf-8"?>
<!-- Generator: Adobe Illustrator 15.0.0, SVG Export Plug-In . SVG Version: 6.00 Build 0)  -->
<!DOCTYPE svg PUBLIC "-//W3C//DTD SVG 1.1//EN" "http://www.w3.org/Graphics/SVG/1.1/DTD/svg11.dtd">
<svg version="1.1" xmlns="http://www.w3.org/2000/svg" xmlns:xlink="http://www.w3.org/1999/xlink" x="0px" y="0px" width="16px"
	 height="16px" viewBox="0 0 16 16" enable-background="new 0 0 16 16" xml:space="preserve">
<g id="icon">
	<g>
		<g opacity="0.75">
			<polygon fill-rule="evenodd" clip-rule="evenodd" points="9,4 9,2 7,2 7,4 4.5,4 8,7 11.5,4 			"/>
		</g>
		<g>
			<polygon fill-rule="evenodd" clip-rule="evenodd" fill="#CFCFCE" points="9,5 9,3 7,3 7,5 4.5,5 8,8 11.5,5 			"/>
		</g>
	</g>
	<g>
		<g opacity="0.75">
			<path fill-rule="evenodd" clip-rule="evenodd" d="M12,6v1c-1.104,0-2,0.896-2,2H9H7H6c0-1.104-0.896-2-2-2V6H3v4h10V6H12z"/>
		</g>
		<g>
			<path fill-rule="evenodd" clip-rule="evenodd" fill="#CFCFCE" d="M12,7v1c-1.104,0-2,0.896-2,2H9H7H6c0-1.104-0.896-2-2-2V7H3v4
				h10V7H12z"/>
		</g>
	</g>
</g>
</svg>
