<?xml version="1.0" encoding="utf-8"?>
<!-- Generator: Adobe Illustrator 15.0.0, SVG Export Plug-In . SVG Version: 6.00 Build 0)  -->
<!DOCTYPE svg PUBLIC "-//W3C//DTD SVG 1.1//EN" "http://www.w3.org/Graphics/SVG/1.1/DTD/svg11.dtd">
<svg version="1.1" xmlns="http://www.w3.org/2000/svg" xmlns:xlink="http://www.w3.org/1999/xlink" x="0px" y="0px" width="16px"
	 height="16px" viewBox="0 0 16 16" enable-background="new 0 0 16 16" xml:space="preserve">
<g id="icon">
	<g>
		<g opacity="0.84">
			<path fill-rule="evenodd" clip-rule="evenodd" d="M11,5V4c0-1.657-1.343-3-3-3C6.343,1,5,2.343,5,4v1H4v7h8V5H11z M6,4
				c0-1.104,0.896-2,2-2s2,0.896,2,2v1H6V4z"/>
		</g>
		<g>
			<path fill-rule="evenodd" clip-rule="evenodd" fill="#848483" d="M11,6V5c0-1.657-1.343-3-3-3C6.343,2,5,3.343,5,5v1H4v7h8V6H11z
				 M6,5c0-1.104,0.896-2,2-2s2,0.896,2,2v1H6V5z"/>
		</g>
	</g>
</g>
</svg>
