<?xml version="1.0" encoding="utf-8"?>
<!-- Generator: Adobe Illustrator 15.0.0, SVG Export Plug-In . SVG Version: 6.00 Build 0)  -->
<!DOCTYPE svg PUBLIC "-//W3C//DTD SVG 1.1//EN" "http://www.w3.org/Graphics/SVG/1.1/DTD/svg11.dtd">
<svg version="1.1" xmlns="http://www.w3.org/2000/svg" xmlns:xlink="http://www.w3.org/1999/xlink" x="0px" y="0px" width="16px"
	 height="16px" viewBox="0 0 16 16" enable-background="new 0 0 16 16" xml:space="preserve">
<g id="icon">
	<g>
		<g opacity="0.75">
			<polygon fill-rule="evenodd" clip-rule="evenodd" points="9,7 9,3.5 8,3.5 8,7 8,8 8,10 11,7 			"/>
		</g>
		<g>
			<polygon fill-rule="evenodd" clip-rule="evenodd" fill="#CFCFCE" points="9,8 9,4.5 8,4.5 8,8 8,9 8,11 11,8 			"/>
		</g>
	</g>
	<g>
		<g opacity="0.75">
			<polygon fill-rule="evenodd" clip-rule="evenodd" points="6,6 6,9.5 7,9.5 7,6 7,5 7,3 4,6 			"/>
		</g>
		<g>
			<polygon fill-rule="evenodd" clip-rule="evenodd" fill="#CFCFCE" points="6,7 6,10.5 7,10.5 7,7 7,6 7,4 4,7 			"/>
		</g>
	</g>
</g>
</svg>
