<?xml version="1.0" encoding="utf-8"?>
<!-- Generator: Adobe Illustrator 15.0.0, SVG Export Plug-In . SVG Version: 6.00 Build 0)  -->
<!DOCTYPE svg PUBLIC "-//W3C//DTD SVG 1.1//EN" "http://www.w3.org/Graphics/SVG/1.1/DTD/svg11.dtd">
<svg version="1.1" xmlns="http://www.w3.org/2000/svg" xmlns:xlink="http://www.w3.org/1999/xlink" x="0px" y="0px" width="16px"
	 height="16px" viewBox="0 0 16 16" enable-background="new 0 0 16 16" xml:space="preserve">
<g id="icon">
	<g>
		<g opacity="0.75">
			<polygon fill-rule="evenodd" clip-rule="evenodd" points="7,5 7,7 9,7 9,5 11.5,5 8,2 4.5,5 			"/>
		</g>
		<g>
			<polygon fill-rule="evenodd" clip-rule="evenodd" fill="#CFCFCE" points="7,6 7,8 9,8 9,6 11.5,6 8,3 4.5,6 			"/>
		</g>
	</g>
	<g>
		<g opacity="0.75">
			<path fill-rule="evenodd" clip-rule="evenodd" d="M3,8v2h1c0-0.553,0.447-1,1-1h1v1h7V8H3z"/>
		</g>
		<g>
			<path fill-rule="evenodd" clip-rule="evenodd" fill="#CFCFCE" d="M3,9v2h1c0-0.553,0.447-1,1-1h1v1h7V9H3z"/>
		</g>
	</g>
</g>
</svg>
