<?xml version="1.0" encoding="utf-8"?>
<!-- Generator: Adobe Illustrator 15.0.0, SVG Export Plug-In . SVG Version: 6.00 Build 0)  -->
<!DOCTYPE svg PUBLIC "-//W3C//DTD SVG 1.1//EN" "http://www.w3.org/Graphics/SVG/1.1/DTD/svg11.dtd">
<svg version="1.1" xmlns="http://www.w3.org/2000/svg" xmlns:xlink="http://www.w3.org/1999/xlink" x="0px" y="0px" width="16px"
	 height="16px" viewBox="0 0 16 16" enable-background="new 0 0 16 16" xml:space="preserve">
<g id="icon">
	<g>
		<g opacity="0.84">
			<path fill-rule="evenodd" clip-rule="evenodd" d="M12.951,10.037c0,0,0-0.002-0.002-0.007c-0.02-0.104-0.042-0.207-0.07-0.311
				c-0.113-0.471-0.328-1.334-0.462-1.618c-0.152-0.32-0.922-0.526-1.624-0.837c-0.228-0.095-0.279-0.12-0.664-0.349
				C9.751,6.666,9.393,6.36,9.359,6.08C9.284,5.47,9.665,5.415,9.903,4.371c0.24-1.045,0.17-1.716,0.034-2.173
				C9.806,1.74,9.009,1,8,1C6.989,1,6.192,1.74,6.06,2.198C5.927,2.655,5.892,3.326,6.131,4.371c0.24,1.044,0.62,1.099,0.546,1.709
				C6.643,6.36,6.285,6.666,5.908,6.915C5.524,7.144,5.471,7.169,5.242,7.264C4.54,7.575,3.772,7.782,3.619,8.102
				c-0.136,0.284-0.35,1.147-0.46,1.618C3.13,9.823,3.105,9.926,3.086,10.03c0,0.005-0.001,0.007-0.001,0.007h0.001
				c-0.038,0.199-0.057,0.408-0.057,0.619V11h4.99h4.988v-0.344C13.007,10.445,12.987,10.236,12.951,10.037L12.951,10.037z"/>
		</g>
		<g>
			<path fill-rule="evenodd" clip-rule="evenodd" fill="#848483" d="M12.951,11.037c0,0,0-0.002-0.002-0.007
				c-0.02-0.104-0.042-0.207-0.07-0.311c-0.113-0.471-0.328-1.334-0.462-1.618c-0.152-0.32-0.922-0.526-1.624-0.837
				c-0.228-0.095-0.279-0.12-0.664-0.349C9.751,7.666,9.393,7.36,9.359,7.08C9.284,6.47,9.665,6.415,9.903,5.371
				c0.24-1.045,0.17-1.716,0.034-2.173C9.806,2.74,9.009,2,8,2C6.989,2,6.192,2.74,6.06,3.198C5.927,3.655,5.892,4.326,6.131,5.371
				c0.24,1.044,0.62,1.099,0.546,1.709C6.643,7.36,6.285,7.666,5.908,7.915C5.524,8.144,5.471,8.169,5.242,8.264
				C4.54,8.575,3.772,8.782,3.619,9.102c-0.136,0.284-0.35,1.147-0.46,1.618c-0.029,0.104-0.053,0.206-0.073,0.311
				c0,0.005-0.001,0.007-0.001,0.007h0.001c-0.038,0.199-0.057,0.408-0.057,0.619V12h4.99h4.988v-0.344
				C13.007,11.445,12.987,11.236,12.951,11.037L12.951,11.037z"/>
		</g>
	</g>
</g>
</svg>
