<?xml version="1.0" encoding="utf-8"?>
<!-- Generator: Adobe Illustrator 15.0.0, SVG Export Plug-In . SVG Version: 6.00 Build 0)  -->
<!DOCTYPE svg PUBLIC "-//W3C//DTD SVG 1.1//EN" "http://www.w3.org/Graphics/SVG/1.1/DTD/svg11.dtd">
<svg version="1.1" xmlns="http://www.w3.org/2000/svg" xmlns:xlink="http://www.w3.org/1999/xlink" x="0px" y="0px" width="16px"
	 height="16px" viewBox="0 0 16 16" enable-background="new 0 0 16 16" xml:space="preserve">
<g id="icon">
	<g>
		<g opacity="0.5">
			<path d="M14.07,11.656L9.302,6.887C9.737,6.194,10,5.38,10,4.5C10,2.015,7.985,0,5.5,0S1,2.015,1,4.5S3.015,9,5.5,9
				c0.88,0,1.694-0.263,2.388-0.699l4.769,4.77c0.391,0.393,1.023,0.393,1.414,0C14.462,12.68,14.462,12.047,14.07,11.656z M2,4.5
				C2,2.567,3.567,1,5.5,1S9,2.567,9,4.5S7.433,8,5.5,8S2,6.433,2,4.5z"/>
		</g>
		<g>
			<path fill="#C1C1C1" d="M14.07,12.656L9.302,7.887C9.737,7.194,10,6.38,10,5.5C10,3.015,7.985,1,5.5,1S1,3.015,1,5.5
				S3.015,10,5.5,10c0.88,0,1.694-0.263,2.388-0.699l4.769,4.77c0.391,0.393,1.023,0.393,1.414,0
				C14.462,13.68,14.462,13.047,14.07,12.656z M2,5.5C2,3.567,3.567,2,5.5,2S9,3.567,9,5.5S7.433,9,5.5,9S2,7.433,2,5.5z"/>
		</g>
	</g>
</g>
</svg>
